<svg xmlns="http://www.w3.org/2000/svg" version="1.1" xmlns:xlink="http://www.w3.org/1999/xlink" xmlns:svgjs="http://svgjs.com/svgjs" width="1920" height="1080" preserveAspectRatio="none" viewBox="0 0 1920 1080"><g mask="url(&quot;#SvgjsMask1038&quot;)" fill="none"><rect width="1920" height="1080" x="0" y="0" fill="rgba(11, 12, 16, 1)"></rect><path d="M452.37 421.38L460.65 421.38L460.65 511.62L452.37 511.62z" fill="rgba(31, 40, 51, 1)"></path><path d="M851.31 444.07L894 444.07L894 486.76L851.31 486.76z" fill="rgba(31, 40, 51, 1)"></path><path d="M343.76 782 a45.87 45.87 0 1 0 91.74 0 a45.87 45.87 0 1 0 -91.74 0z" fill="rgba(31, 40, 51, 1)"></path><path d="M1250.51 601.42L1326.29 601.42L1326.29 677.2L1250.51 677.2z" stroke="rgba(31, 40, 51, 1)"></path><path d="M1360.02 872.67L1396.28 872.67L1396.28 908.93L1360.02 908.93z" stroke="rgba(69, 162, 158, 1)"></path><path d="M1525.26 1060.32a61.56 61.56 0 1 0 120.94 23.08z" stroke="rgba(69, 162, 158, 1)"></path><path d="M1357.32 430.51 a29.43 29.43 0 1 0 58.86 0 a29.43 29.43 0 1 0 -58.86 0z" fill="rgba(69, 162, 158, 1)"></path><path d="M101.45 908.73a28.38 28.38 0 1 0-28.76-48.94z" fill="rgba(69, 162, 158, 1)"></path><path d="M1076.85 799.9L1091.35 799.9L1091.35 835.5L1076.85 835.5z" fill="rgba(69, 162, 158, 1)"></path><path d="M1477.61 65.52L1490.9 65.52L1490.9 157.43L1477.61 157.43z" stroke="rgba(69, 162, 158, 1)"></path><path d="M1592.64 907.23a8.55 8.55 0 1 0 10.82 13.25z" fill="rgba(31, 40, 51, 1)"></path><path d="M55.24 394.67a107.89 107.89 0 1 0 162.39-142.1z" stroke="rgba(69, 162, 158, 1)"></path><path d="M478.85 351.53a40.16 40.16 0 1 0-62.54 50.39z" fill="rgba(69, 162, 158, 1)"></path><path d="M1162.02 1036.09L1244.3 1036.09L1244.3 1118.37L1162.02 1118.37z" stroke="rgba(69, 162, 158, 1)"></path><path d="M359.29 80.38L428.87 80.38L428.87 149.96L359.29 149.96z" fill="rgba(31, 40, 51, 1)"></path><path d="M1171.53 877.51L1261.39 877.51L1261.39 940.43L1171.53 940.43z" fill="rgba(31, 40, 51, 1)"></path><path d="M849.58 374.28L937.76 374.28L937.76 462.46L849.58 462.46z" stroke="rgba(31, 40, 51, 1)"></path><path d="M1228.17 1008.87L1236.47 1008.87L1236.47 1111.68L1228.17 1111.68z" fill="rgba(31, 40, 51, 1)"></path><path d="M1605.6 338.17 a17.94 17.94 0 1 0 35.88 0 a17.94 17.94 0 1 0 -35.88 0z" fill="rgba(69, 162, 158, 1)"></path><path d="M450.24 596.67 a81.85 81.85 0 1 0 163.7 0 a81.85 81.85 0 1 0 -163.7 0z" fill="rgba(69, 162, 158, 1)"></path><path d="M653.28 1007.37L733.76 1007.37L733.76 1087.85L653.28 1087.85z" fill="rgba(69, 162, 158, 1)"></path><path d="M8.8 768.96L92.72 768.96L92.72 852.88L8.8 852.88z" stroke="rgba(31, 40, 51, 1)"></path><path d="M1574.03 93.99L1588.1 93.99L1588.1 187.44L1574.03 187.44z" fill="rgba(69, 162, 158, 1)"></path></g><defs><mask id="SvgjsMask1038"><rect width="1920" height="1080" fill="#ffffff"></rect></mask></defs></svg>